<?xml version="1.0" encoding="UTF-8" standalone="no"?>
<!-- Created with Inkscape (http://www.inkscape.org/) -->

<svg
   width="256mm"
   height="256mm"
   viewBox="0 0 256 256"
   version="1.1"
   id="svg1"
   inkscape:version="1.4.2 (ebf0e940, 2025-05-08)"
   sodipodi:docname="abramelin1.svg"
   xmlns:inkscape="http://www.inkscape.org/namespaces/inkscape"
   xmlns:sodipodi="http://sodipodi.sourceforge.net/DTD/sodipodi-0.dtd"
   xmlns:xlink="http://www.w3.org/1999/xlink"
   xmlns="http://www.w3.org/2000/svg"
   xmlns:svg="http://www.w3.org/2000/svg">
  <sodipodi:namedview
     id="namedview1"
     pagecolor="#505050"
     bordercolor="#eeeeee"
     borderopacity="1"
     inkscape:showpageshadow="0"
     inkscape:pageopacity="0"
     inkscape:pagecheckerboard="0"
     inkscape:deskcolor="#505050"
     inkscape:document-units="mm"
     inkscape:zoom="0.75786534"
     inkscape:cx="481.6159"
     inkscape:cy="493.49136"
     inkscape:window-width="1712"
     inkscape:window-height="979"
     inkscape:window-x="0"
     inkscape:window-y="34"
     inkscape:window-maximized="0"
     inkscape:current-layer="layer1" />
  <defs
     id="defs1">
    <linearGradient
       id="linearGradient8"
       inkscape:collect="always">
      <stop
         style="stop-color:#9800ea;stop-opacity:0.53092784;"
         offset="0.33796993"
         id="stop13" />
      <stop
         style="stop-color:#0077ff;stop-opacity:1;"
         offset="0.40000001"
         id="stop16" />
      <stop
         style="stop-color:#44aaff;stop-opacity:1;"
         offset="0.60000002"
         id="stop14" />
      <stop
         style="stop-color:#ffcc00;stop-opacity:1;"
         offset="0.80000001"
         id="stop15" />
      <stop
         style="stop-color:#ff8800;stop-opacity:1;"
         offset="0.89999998"
         id="stop10" />
    </linearGradient>
    <radialGradient
       inkscape:collect="always"
       xlink:href="#linearGradient8"
       id="radialGradient14"
       cx="128.00023"
       cy="127.99808"
       fx="128.00023"
       fy="127.99808"
       r="110.42833"
       gradientTransform="matrix(1,0,0,1.035284,0,-4.5162822)"
       gradientUnits="userSpaceOnUse" />
  </defs>
  <g
     inkscape:label="Layer 1"
     inkscape:groupmode="layer"
     id="layer1">
    <path
       id="path1"
       style="fill:url(#radialGradient14);stroke:#000000;stroke-width:2.11667;stroke-linecap:round;stroke-linejoin:round;stroke-dasharray:none;stroke-opacity:1;paint-order:normal"
       d="m 116.9305,14.797945 c -1.95835,0.18748 -3.91216,0.806882 -5.94155,2.160944 -4.89962,3.269135 -4.02979,8.488253 -3.46623,13.650942 0.20504,1.877611 0.20052,4.054971 1.19195,5.721202 0.93506,1.571418 2.62352,2.311548 3.88435,3.542155 -2.07166,0.556284 -5.68611,1.790498 -6.78995,3.779731 -0.59305,1.068813 -0.67485,2.608267 -0.9941,3.788699 -0.32286,1.193468 -1.11316,3.594941 -0.0657,4.641761 0.76297,0.762447 2.99212,0.07777 3.94395,-0.03337 3.63173,-0.42406 9.29485,-0.613713 12.11662,-3.239928 1.48602,-1.383068 1.68196,-3.7183 2.04101,-5.605477 0.51979,-2.732604 2.32873,-7.532274 0.26332,-9.886841 -2.19595,-2.503383 -6.43648,-4.212062 -9.50766,-5.348011 -1.62391,-0.600646 -3.93435,-0.897609 -4.31695,-2.893848 -0.56753,-2.9609 2.67035,-5.483504 5.08147,-6.528118 4.28088,-1.854702 7.88421,-0.32968 12.2407,-0.10987 2.56723,0.129533 5.53357,-0.265168 7.85466,1.145738 2.28521,1.38899 2.70259,3.9696 1.19612,6.131212 -1.88846,2.709877 -5.05351,4.378604 -7.10949,6.978235 -4.66034,5.892528 -3.27736,12.476411 -1.9727,19.285942 0.84236,4.396434 7.1461,5.012712 9.39549,1.388809 0.9145,-1.473334 1.32225,-5.094667 2.74769,-6.023052 2.64074,-1.719983 5.28486,3.389031 4.39937,5.479876 -1.85222,4.373106 -7.8676,6.76407 -9.05648,11.446338 -0.57041,2.246506 1.4568,9.503149 4.08455,9.645541 -0.88655,1.29533 -2.10205,2.803181 -1.83519,4.476382 0.49908,3.12671 5.20528,4.578145 7.7793,3.12482 2.33004,-1.315589 3.2829,-5.955074 3.0217,-8.381716 2.09894,-0.15282 6.24929,0.644557 5.70074,3.596447 -1.03108,5.549251 -9.7228,8.893647 -8.56169,15.117896 0.29494,1.581308 1.55126,2.659536 2.35119,3.988603 0.69186,1.14924 1.04129,2.5291 1.97086,3.49816 -2.75131,3.186513 -0.28653,6.450943 3.4469,6.706563 2.74848,0.18822 5.13679,-0.76044 5.47168,-3.75223 0.12787,-1.14233 0.0757,-4.491423 1.28841,-5.002013 1.8488,-0.77841 5.1447,1.48007 4.81837,3.489813 -0.82872,5.10326 -7.74296,7.97117 -8.41116,12.85586 -0.42695,3.12158 2.91715,6.70394 4.3863,9.19096 l 1.02051,-0.38554 c -1.17669,1.48786 -4.12428,4.88747 -0.8831,5.9869 2.32191,0.78763 5.69309,0.45097 6.89662,-1.89942 0.66334,-1.29545 0.60482,-3.18974 1.43905,-4.33129 0.91542,-1.25251 3.45369,-0.10151 4.20347,0.82133 1.09579,1.34846 0.36537,3.18079 -0.37945,4.49891 -1.7065,3.02042 -5.26307,5.81442 -6.57642,8.98324 -0.81552,1.96748 1.5271,4.35903 2.32599,6.12809 0.53285,1.17992 2.51719,9.1512 5.93201,8.66036 3.72959,-0.53607 2.89168,-6.07949 5.86444,-6.90727 3.80421,-1.05935 3.54945,4.1662 2.67761,6.18247 -1.13013,2.61342 -2.83543,4.96975 -4.58993,7.19546 -0.85709,1.08733 -2.29968,2.48889 -2.22866,3.98957 0.0986,2.08424 2.16257,3.7832 3.0875,5.52224 0.62156,1.16887 0.83141,3.09279 2.02012,3.73746 l 0.0307,0.2628 c -2.90571,3.80934 -0.36189,5.04791 3.49879,4.86965 2.80971,-0.12973 3.60693,-3.11727 4.58869,-5.28123 0.52308,-1.15315 1.20901,-2.78562 2.7665,-2.44003 3.11271,0.69066 2.44787,4.31445 1.61245,6.4572 -1.67419,4.29409 -6.56533,7.82449 -6.93413,12.53043 -0.24318,3.1029 3.37337,5.19997 4.62689,7.72691 0.93557,1.88614 0.11924,4.23058 0.55727,6.31871 1.83239,1.00042 8.4123,2.88124 9.5403,-0.0979 0.58752,-1.55155 -1.17641,-3.22184 -0.0143,-5.01014 l -0.35484,-0.75771 c 5.60599,-3.63031 6.85462,2.83071 8.73635,6.70494 3.40328,7.00666 -0.58845,18.02148 -9.23884,18.64899 -1.91042,0.13861 -4.00743,-0.56942 -5.2705,-2.04163 -2.06207,-2.40356 -1.15753,-5.74206 -3.31995,-8.13237 -3.14882,-3.48068 -10.94532,-4.08327 -11.89743,-9.26604 -0.86504,-4.70956 3.40817,-9.41527 1.54663,-14.0324 -1.53019,-3.79525 -7.95874,-5.7074 -11.21312,-3.48555 l 0.0307,0.2628 c 4.71452,-1.72021 6.5985,3.69239 7.03566,7.43629 0.61004,5.24176 -1.32359,10.64777 3.1093,14.81649 2.88083,2.70911 7.71209,2.78277 10.14292,6.01211 1.03481,1.37465 0.77249,3.08436 1.26066,4.64764 1.15673,3.70357 4.1507,6.27158 8.05891,6.20551 14.39894,-0.24341 16.63733,-20.26975 8.14189,-28.84993 -2.26305,-2.28566 -9.25401,-2.93343 -12.37518,-2.84208 1.09056,-3.29541 3.81244,-5.64347 4.30646,-9.29342 0.34423,-2.54272 -0.83219,-5.0029 -1.88627,-7.23841 -0.99749,-2.11554 -1.84438,-4.78095 -3.459,-6.5116 -1.99458,-2.13779 -6.37361,-2.88357 -9.18667,-2.93344 1.26273,-2.40469 3.27705,-4.59482 3.72516,-7.36087 0.40355,-2.49083 -0.67911,-5.05644 -1.703,-7.25982 -2.16676,-4.66249 -4.08104,-8.36301 -9.60627,-9.26717 0.93059,-3.26424 1.05986,-6.80624 0.67352,-10.20113 5.21042,3.02441 7.55618,1.20077 12.06312,-1.63071 2.03477,-1.27834 4.35434,-1.81783 4.52778,-4.56862 l -0.26281,0.0307 c -1.50849,2.12608 -3.72743,0.9198 -5.60648,-0.10703 -3.0656,-1.6753 -11.86393,-6.93627 -14.42359,-2.61538 l -0.26279,0.0307 c -2.96347,-3.3029 -6.80506,-2.26659 -10.53866,-3.56431 6.03763,-4.08449 6.05446,-10.20604 3.45218,-16.11956 -0.73772,-1.67654 -1.30714,-3.751583 -2.77309,-4.954923 -3.04293,-2.497798 -8.99722,-2.725662 -12.73079,-2.29172 2.46119,-2.861819 5.94522,-5.422489 7.19548,-9.097983 1.62267,2.736018 3.30008,7.905605 6.85729,8.537725 2.36973,0.421086 4.8551,-1.082174 7.11729,-0.642188 1.48101,0.28804 2.24642,1.761276 3.69974,2.027846 l 0.34148,-1.638146 -0.26279,0.03066 c -1.22189,0.272038 -2.03547,-1.711129 -2.54413,-2.633117 -1.6416,-2.975037 -3.48001,-6.043256 -6.01119,-8.354015 -1.78764,-1.631965 -3.96747,-2.258583 -6.33355,-2.45703 -0.98095,-0.08227 -2.48866,0.29673 -3.3689,-0.148236 -2.0971,-1.060078 -2.8361,-5.184494 -4.40898,-6.912114 -2.61552,-2.872816 -9.20383,-3.209325 -12.81802,-2.789326 2.35174,-2.530908 5.72488,-4.554388 7.22573,-7.76962 2.26185,-4.845822 -1.88842,-15.862341 -6.76962,-17.981592 -2.98548,-1.296199 -7.0957,-2.057705 -10.309,-1.597428 -1.15659,0.165686 -3.0482,1.331666 -3.46023,-0.404474 -1.78453,-7.519945 6.54876,-11.3491 9.94071,-16.349645 2.0818,-3.069122 1.41841,-7.278031 -1.79037,-9.22874 -2.51055,-1.526272 -5.70071,-1.817501 -8.53095,-2.348208 -3.66198,-0.686633 -6.93876,-1.574244 -10.2027,-1.261777 z m 3.7414,21.755093 -5.05306,2.016322 c 1.29876,-1.327115 6.70477,-2.675405 5.05306,-2.016322 z m -12.22126,18.400858 c -0.16809,0.01978 -0.32357,0.06746 -0.46215,0.150212 -0.80905,0.482941 -0.98548,1.52127 -1.92659,1.884638 -1.03311,0.398939 -2.31518,-0.102057 -3.18341,0.781168 -2.42814,2.469947 2.36746,7.114506 4.45826,7.757529 -2.2313,1.264613 -4.89568,1.442568 -7.12856,2.827105 -2.425727,1.504129 -3.009951,4.797177 -3.411771,7.460592 -0.150178,0.995323 -0.428565,2.779268 0.939943,3.001492 1.570065,0.254969 3.901548,-0.640412 5.440548,-1.006742 3.53505,-0.841478 7.94374,-0.349999 10.81779,-2.965484 1.54835,-1.409002 2.09037,-3.679537 2.6781,-5.612233 0.55635,-1.8296 1.79438,-3.873848 1.81265,-5.805653 0.0303,-3.210646 -4.50426,-6.865914 -7.02811,-8.236312 l 0.64832,0.989823 c -0.89887,-0.274495 -2.54785,-1.356405 -3.65502,-1.226137 z m -0.79638,1.124176 0.10774,0.16483 z m 4.77558,0.596868 0.58697,0.464225 -0.52559,0.06137 z m 0.91114,0.959134 c 1.78398,0.632337 5.00832,4.784923 2.82181,6.548549 -1.11226,0.897141 -3.5112,0.724232 -4.88408,0.884536 l -0.0307,-0.262801 1.19125,-1.204621 1.22192,-0.941821 z m 2.14643,2.413182 -0.23211,0.293483 z m -13.82129,20.793271 -1.887591,2.085072 c -7.918385,-1.518022 -3.540045,7.920896 1.104681,9.460719 l 0.0307,0.262808 c -1.161393,0.311708 -4.169124,2.100579 -5.246232,1.240549 -0.691172,-0.551884 -0.181121,-1.470105 -0.420067,-2.176168 -0.322434,-0.952563 -1.475218,-1.476207 -2.369631,-1.726888 -3.338765,-0.935814 -7.479791,0.21211 -10.850888,0.605738 l 0.03068,0.262798 c 2.426855,1.330247 3.866317,3.771811 5.319396,6.038402 0.420751,0.65626 1.266828,2.08536 2.217005,1.91692 0.94732,-0.1679 1.950173,-1.65446 2.72215,-2.22726 l -0.805706,2.22512 c -0.931814,0.93876 -2.409628,6.466733 -0.903814,7.213023 1.491492,0.73917 5.115338,-0.72105 6.677122,-1.11471 3.442115,-0.86757 7.835055,-1.01862 10.069175,-4.2438 1.56453,-2.258533 1.68448,-5.627005 2.32519,-8.237952 1.82867,2.840414 3.17286,7.877852 6.66468,9.160612 3.47954,1.27829 6.7756,-2.725323 9.92776,0.62272 l 0.92845,-1.17393 c -3.5703,-2.062523 -5.13395,-8.036148 -8.12634,-11.038267 -1.29343,-1.297679 -2.84725,-2.496664 -4.68409,-2.856702 -1.17402,-0.230094 -2.63349,0.22148 -3.70139,-0.3888 -0.89765,-0.513035 -1.45079,-1.715215 -2.17538,-2.44726 -1.45098,-1.465802 -3.19177,-2.705326 -5.00627,-3.677536 2.0087,2.695818 8.98277,7.537229 2.79066,10.211807 -0.99112,0.428127 -2.04994,0.688805 -3.07866,1.009819 l -0.0307,-0.262798 0.98981,-0.648342 -0.35486,-0.757706 1.362,-2.023702 c -0.74757,-2.978672 -0.48513,-5.591765 -3.51786,-7.314281 z m -67.441966,8.330122 c -2.776677,0.366132 -5.990884,2.676645 -7.826398,4.082328 -6.891679,5.278 -10.728252,17.380583 -4.954195,24.924233 2.618412,3.42087 6.302013,3.71619 10.241602,4.38878 1.042684,0.17802 3.542595,0.856 4.301869,-0.15841 0.481795,-0.64372 0.0405,-1.73164 0.125119,-2.47968 0.371928,-3.28756 -0.551618,-5.70635 -0.721488,-8.9727 -2.225539,1.2578 -4.064896,3.40784 -5.776862,5.27793 -0.77388,0.84535 -1.694087,2.3267 -2.894844,2.58405 -3.678392,0.78835 -5.529037,-5.79736 -5.760758,-8.30782 -0.65982,-7.14163 3.006144,-13.191583 8.951103,-16.840214 1.205055,-0.73959 3.834656,-2.916099 5.267191,-2.700807 1.733001,0.260448 2.76368,3.34586 3.488933,4.687147 2.065008,3.819481 3.472654,8.400224 7.846159,10.162584 2.233981,0.90021 4.669305,1.13826 6.89898,2.05075 2.025927,0.8291 3.773542,2.21274 5.918029,2.77505 1.736943,0.45545 3.106247,0.0114 3.515793,-1.82879 -3.580631,0.25635 -4.350254,-5.718 -6.969059,-6.96854 -2.253721,-1.07618 -2.387531,2.33421 -3.739622,3.01307 -1.958853,0.98352 -5.927272,-1.12689 -7.194014,-2.47883 -3.116144,-3.325793 -4.06799,-11.789574 -8.887368,-13.117909 -0.571831,-0.157617 -1.189398,-0.176713 -1.83017,-0.09222 z M 176.65934,78.926582 c -1.66149,0.161848 -3.1763,0.717569 -3.84425,2.130405 0.80789,-0.466938 1.61961,-0.857584 2.54126,-1.04957 8.10404,-1.687776 5.91096,11.193087 10.07784,14.299365 2.69873,2.011805 7.94446,-1.455862 9.00663,3.138115 1.70357,-1.213133 -1.44358,-13.001168 -6.16635,-16.272726 -2.00293,-1.387515 -4.53454,-1.712403 -6.89061,-2.014784 -1.25486,-0.161055 -3.06303,-0.392677 -4.72452,-0.230833 z m -50.21943,6.479892 c 3.26133,1.013167 5.28055,5.003225 6.96882,7.710472 0.71167,1.141354 1.80402,3.377861 3.23558,3.711561 1.79919,0.41942 5.69968,-3.193056 5.31663,-4.977587 -0.78158,-3.640564 -7.53444,-7.137046 -10.99209,-6.440508 l -0.0307,-0.2628 0.78839,-0.09205 -0.0307,-0.262801 z m -60.718336,7.457629 c -1.550396,0.153396 -3.10359,0.506084 -4.376538,0.828915 -1.945701,0.493454 -3.945928,0.722127 -5.321577,2.333079 6.630825,-2.049715 8.625153,5.996783 12.36501,9.719233 3.127866,3.11318 6.800825,0.86775 10.498096,1.29647 1.779741,0.20635 3.073618,1.40955 4.872284,0.6631 C 77.63519,104.69626 76.585681,95.674864 70.081675,93.231136 68.819768,92.75699 67.27197,92.710705 65.721574,92.864103 Z M 195.17418,77.913458 c -1.72566,0.240531 -3.31096,0.697998 -4.33541,2.370893 8.94624,-4.45295 11.58761,7.928057 17.89975,11.466227 2.63745,1.478371 5.4087,-0.679573 8.14774,-0.554928 1.04294,0.04745 2.43705,1.238988 3.35706,0.362927 1.39929,-1.332599 1.25095,-5.07964 1.41955,-6.881984 0.20609,-2.202994 0.28784,-4.463469 0.0767,-6.66848 l -0.26281,0.03067 c -0.57084,2.140199 -1.44039,6.182479 -4.02458,6.596693 -2.87477,0.71947 -5.64702,-3.68765 -7.57791,-5.196135 -4.00358,-3.127872 -8.29364,-2.273955 -12.94315,-1.731054 -0.59077,0.06898 -1.18172,0.124977 -1.75693,0.205148 z m 27.02827,-2.887505 c -0.96436,0.152996 -1.92144,0.403331 -2.87214,0.599642 -1.58778,0.32793 -3.52703,0.70405 -4.87041,1.634215 3.9091,-0.627405 8.29126,-1.910927 12.0078,0.176939 5.35114,3.00606 7.61894,10.319023 8.55446,16.019331 0.50046,3.049497 0.32587,6.463107 -2.21265,8.6447 -5.12417,4.40358 -8.67772,-3.222083 -12.37216,-5.498443 -6.46676,-3.984539 -18.78452,-0.29607 -20.43766,7.385723 l 1.40604,0.63497 c 0.95543,-1.21168 1.6782,-2.81528 2.77108,-3.88016 2.77087,-2.699963 9.76844,-4.966733 13.42457,-3.422843 5.52146,2.33163 7.9889,10.798683 15.28137,7.680533 0.91482,-0.39117 1.7865,-0.97263 2.4368,-1.73038 3.09991,-3.612053 2.07299,-9.228025 0.88311,-13.365456 -1.64995,-5.73744 -4.34556,-13.575346 -11.08396,-14.8957 -0.9804,-0.192084 -1.9519,-0.136103 -2.91626,0.0169 z m -129.916821,21.294454 0.293484,0.23211 z m 125.227911,-11.159318 0.29348,0.232118 z M 39.131236,108.4493 c -0.363779,0.0344 -0.720621,0.13629 -1.064594,0.32878 2.312675,1.33706 2.391831,4.71619 2.36002,7.18309 -0.03453,2.63763 -1.050742,6.37991 0.604853,8.70901 1.507524,2.12068 4.608768,2.88552 6.320621,4.8773 1.292412,1.50366 1.390704,4.18064 2.990685,5.34365 3.280933,2.38488 8.534593,-1.91721 8.263729,-5.33627 1.37344,-1.50744 0.188585,-6.47466 -2.146644,-6.58993 -2.15488,-0.10639 -5.150265,2.58655 -6.692487,3.8927 0.06844,-3.88543 2.562339,-10.84236 -0.48097,-14.03757 -1.369625,-1.43807 -3.694629,-2.06447 -5.481998,-2.81036 -1.386617,-0.57861 -3.096644,-1.70786 -4.673215,-1.5604 z m -3.092234,3.49572 -0.232111,0.29349 z m 112.477478,-13.133473 0.29351,0.23212 z m -52.3548,8.866523 c -0.533531,0.10167 -1.000649,0.44994 -1.351946,1.1339 -1.049147,0.0719 -5.616822,1.04897 -6.123939,1.92678 -1.792586,3.10242 4.175347,8.18318 6.797721,8.4063 0.924157,0.0786 1.585955,-0.56733 2.270487,-1.08715 l -0.324172,-0.49493 2.058325,-2.90413 0.389484,-3.50843 0.2628,-0.0307 c 0.9006,1.62032 2.34491,3.36959 1.56896,5.38532 -0.77148,2.00416 -3.613859,2.39121 -5.382228,3.02119 -4.769033,1.69904 -9.838278,2.53049 -11.135357,7.98993 -0.277523,1.16791 -0.701278,2.33571 -0.30941,3.49908 -0.775767,0.84386 -0.520699,2.63208 0.859961,2.69971 1.440607,0.0706 3.274678,-0.71334 4.654142,-1.10294 3.808731,-1.07668 8.815492,-1.81843 10.889082,-5.64335 1.79459,-3.31036 3.51203,-10.6706 1.60623,-14.03884 -0.85322,-1.50779 -4.418116,-5.69205 -6.730061,-5.25142 z m -34.988474,12.90411 c -0.411162,0.0725 -0.800381,0.24509 -1.152732,0.54976 2.449633,0.39405 2.782464,2.88898 2.975304,4.98022 0.396569,4.30768 -2.127705,9.36048 0.981595,12.93805 1.050846,-0.39701 6.31145,3.45119 7.012919,5.3079 0.475301,1.25793 0.810201,3.37439 2.299871,3.72717 1.114114,0.26381 3.423191,-0.43062 4.143402,-1.01654 0.644367,-0.52407 1.624002,-2.10651 0.542909,-2.19444 l -0.03068,-0.2628 0.310793,-1.90097 c 1.712763,-1.87964 0.135749,-4.80633 -2.149441,-5.10785 -1.461317,-0.19277 -2.783863,0.93838 -3.829598,1.81029 0.0752,-4.24316 2.677554,-10.20177 -0.749131,-13.74093 -1.328944,-1.37247 -3.287669,-2.16038 -4.942288,-3.06274 -1.433849,-0.78204 -3.631233,-2.34138 -5.412911,-2.02709 z m 131.933604,-14.4131 c -0.55132,0.10838 -1.07816,0.30654 -1.57148,0.61272 -1.78496,1.10798 -3.3704,2.51437 -4.8613,3.99364 -0.46656,0.46296 -1.38669,1.26353 -0.89867,1.99926 0.55571,0.8377 2.5741,1.15098 3.45367,1.63152 3.2375,1.76892 6.40211,3.57049 9.88494,4.80969 0.89844,0.31969 4.42925,1.34543 4.21159,-0.43247 1.39952,-0.39424 6.40116,-4.06691 5.63887,-5.69781 -0.52719,-1.12804 -2.87292,-1.84802 -3.92212,-2.41291 -3.02549,-1.6288 -8.07626,-5.26199 -11.9355,-4.50366 z M 90.861441,134.3128 c -0.823375,0.27407 -2.105566,0.39198 -2.730609,1.01861 -1.238114,1.23939 -0.503711,4.41837 -0.677248,6.03883 -0.278825,2.60271 -1.644853,6.54689 -0.09177,8.95425 1.515835,2.34966 4.58058,3.28094 6.571783,5.10342 1.026497,0.93958 0.858592,2.65893 2.037204,3.43372 2.547623,1.67474 7.156799,-2.67976 6.250199,-5.36806 -0.7537,-2.23502 -2.450763,-4.2124 -3.22464,-6.54522 l -1.252619,0.67903 c -0.182528,-5.25013 0.438022,-12.89219 -7.346523,-12.72762 l 0.494912,-0.32416 z m 14.220849,8.7346 c -0.39004,0.0526 -0.78012,0.17848 -1.16751,0.39645 6.47894,1.08239 2.21721,11.81212 3.2165,16.14004 0.32087,1.39003 1.58512,1.78723 2.68222,2.43908 1.69623,1.00778 3.61261,2.49205 4.70329,4.15723 0.80619,1.23074 0.49301,3.06817 1.83834,3.95846 2.53269,1.67612 6.37321,-0.91149 6.72462,-3.62642 0.29168,-2.25282 -1.53956,-3.67814 -0.83717,-6.02901 0.53873,-1.80299 1.76861,-4.20491 4.08313,-3.05214 6.26357,3.11952 1.06035,12.51574 3.40388,17.36164 1.02015,2.10958 5.35207,3.43755 7.22403,4.83893 1.88332,1.40988 1.09984,3.54468 2.50768,5.12377 2.24659,2.5197 7.70115,0.0325 8.55554,-2.77469 0.85917,-2.82329 -2.6832,-5.48634 -2.93569,-7.64865 l -5.30395,2.484 c 0.35922,-4.11028 1.2446,-9.12096 -0.74909,-12.96522 -1.21943,-2.35136 -3.8365,-3.52285 -6.10014,-4.62885 -2.01402,-0.98403 -4.18488,-2.57232 -6.45615,-2.82096 -2.9982,-0.32822 -7.43585,2.55819 -9.60365,4.44334 -0.65336,-5.08335 2.72359,-10.08355 -2.66836,-13.72702 -1.35057,-0.91264 -2.84756,-1.57352 -4.27112,-2.35863 -1.46668,-0.80889 -3.15633,-1.94021 -4.8464,-1.71135 z m -1.43032,0.42712 -0.23211,0.29348 z m 49.84723,0.35235 -5.29465,2.99457 c 3.40295,0.50185 13.76327,7.47392 14.56549,1.8599 0.10321,-0.72501 -2.85601,-7.01619 -3.57068,-8.47993 -2.38206,0.10121 -3.4983,2.79363 -5.70016,3.62546 z m 22.88298,-4.84901 0.56962,2.59731 -1.90095,-0.3108 z m -98.844758,13.55651 c 0.07973,-0.83369 13.167923,5.83132 12.326501,6.13881 0,0 -4.369061,3.82546 -6.68954,4.65713 -2.519977,0.90318 -7.938154,2.88857 -7.938154,2.88857 0,0 1.28187,-4.75971 1.679867,-7.18781 0.351889,-2.1468 0.621326,-6.4967 0.621326,-6.4967 z m 65.637008,-0.23964 c -1.80434,0.21773 -3.1775,1.30341 -5.11825,3.13866 -0.7463,0.70574 -2.7231,1.95639 -2.31027,3.2062 0.54299,1.6444 4.3115,2.62373 5.75429,3.27074 2.81734,1.26344 6.71545,3.17076 9.89314,2.59861 2.55497,-0.46006 7.30065,-5.26145 8.72761,-7.38309 -4.59083,-0.83004 -8.57889,-2.82115 -13.01712,-4.25822 -1.60873,-0.52092 -2.84679,-0.70333 -3.9294,-0.5729 z m -50.807329,10.87775 c -2.225172,2.88283 -4.116083,4.66796 -7.546147,6.0948 -3.031885,1.26124 -7.48704,1.97963 -9.835954,4.40543 -0.167075,0.17252 -0.320326,0.40086 -0.461128,0.67141 l 5.9e-5,5.1e-4 c -0.906013,1.74131 -1.29375,5.22805 -1.487747,6.8015 -0.08767,0.71157 -0.100349,1.86221 0.721654,2.1524 1.633916,0.57675 4.814418,-0.82965 6.425751,-1.27578 2.75883,-0.76383 5.732164,-1.5003 7.841316,-3.56692 2.93822,-2.87906 4.777208,-11.24742 4.342196,-15.28335 z m 58.658609,7.83027 c -0.59829,0.0719 -1.17893,0.28734 -1.72198,0.70522 3.18564,-0.22307 4.21128,1.9668 4.55569,4.79567 0.5695,4.68416 -0.94099,9.28624 0.54447,13.78823 1.60986,-0.18797 5.84169,3.17095 6.65806,4.55018 0.72241,1.22033 0.49516,3.15727 1.83834,3.95849 0.91196,0.54404 2.2586,-0.27178 3.06902,-0.71367 2.44755,-1.33439 3.99869,-2.53794 3.34875,-5.5407 -0.38828,-1.79363 -2.58685,-3.41217 -2.71609,-5.01047 l -0.58697,-0.46423 -0.2628,0.0307 -2.24244,1.32737 c 0.065,-3.68756 1.70314,-9.01143 -1.05725,-12.12904 -1.52644,-1.72394 -4.09683,-2.61639 -6.11147,-3.6385 -1.5674,-0.79516 -3.52043,-1.87436 -5.31533,-1.6592 z m -68.585941,14.37299 c 0.0036,2.82679 3.639703,4.53779 1.593103,7.77991 -3.205913,5.07874 -12.085805,3.18542 -16.36447,6.82845 -1.709151,1.45531 -2.708192,6.82798 -2.715736,9.01037 4.375906,1.58802 12.960828,0.29157 16.444614,-2.88942 1.943863,-1.77496 2.482625,-4.41956 3.142072,-6.85628 1.566902,-5.79053 2.522438,-9.26323 -2.099583,-13.87303 z m -1.283305,0.41622 -3.122889,0.63104 c 0.295683,0.7828 -3.456801,1.04194 -4.406176,1.04731 -0.888419,0.005 -2.85629,-0.79641 -2.242438,1.32737 0.500966,1.73293 5.241374,5.1266 6.456637,5.10645 1.796772,-0.0298 2.889704,-3.14654 2.167694,-4.24881 z m -0.897763,1.43674 0.293483,0.23211 z m 0.983859,0.0625 -0.06682,0.1852 z m 26.73886,-2.20702 c -2.59306,0.16209 -4.38774,2.57044 -6.16578,4.25523 -0.62993,0.59688 -2.28215,1.71566 -1.59036,2.73243 0.87809,1.29048 3.51282,2.00515 4.88347,2.65706 3.15608,1.50095 7.65181,3.78306 11.17471,2.16749 1.79982,-0.82541 3.14566,-2.54664 4.61384,-3.83155 1.39502,-1.22081 3.63157,-1.94573 4.07716,-3.86515 -5.83988,1.85235 -10.70124,-3.79591 -16.46357,-4.11698 -0.1802,-0.0101 -0.35659,-0.009 -0.52946,0.002 z m -16.619665,16.93184 c -0.281653,0.0158 -0.561461,0.051 -0.839548,0.1084 -2.446428,0.50594 -4.215586,3.31469 -5.804845,5.02938 -0.582625,0.62863 -1.755286,1.75903 -1.007888,2.67692 0.856585,1.05196 3.270271,1.55178 4.494331,2.09585 3.222774,1.4324 7.916142,3.25859 11.37889,1.63483 2.196665,-1.03004 3.878795,-3.18472 5.608165,-4.82901 1.64926,-1.56815 3.4665,-2.77598 3.88118,-5.15595 -1.54121,0.87082 -2.60483,2.32498 -4.52138,2.34213 -4.35754,0.039 -8.963935,-4.13836 -13.188904,-3.90259 z m 100.180825,-6.20457 0.29348,0.23211 z m -121.491315,15.78425 0.771082,2.04102 -4.730362,0.55234 -0.170743,0.81907 c 3.654484,2.79125 8.454661,4.12759 10.596095,8.61884 -2.459986,0.28724 -5.259238,0.26185 -7.59357,1.12599 -6.142432,2.27388 -5.656357,9.76088 -1.482312,13.70543 6.446433,6.09197 17.931004,1.46817 20.758473,-6.07306 1.454428,-3.8791 0.07185,-7.51523 0.03557,-11.45855 -0.02029,-2.20437 1.09815,-4.13302 1.350934,-6.28449 l -0.262802,0.0307 c -0.901087,1.52093 -2.401184,1.79563 -4.082022,1.54217 -1.030959,2.96608 0.614499,5.7764 1.230768,8.64685 0.67646,3.15059 0.19615,5.97839 -1.551558,8.7012 -4.093662,6.37766 -18.201798,8.14557 -18.642537,-2.08113 -0.308258,-7.15293 7.988488,-3.36087 11.20737,-5.88497 1.248573,-0.9791 0.477289,-3.058 -0.08356,-4.20448 -1.564737,-3.19871 -4.82734,-7.32529 -7.350822,-9.79691 z m 50.744885,-37.88848 c -1.80434,0.21773 -3.44428,0.32522 -5.38503,2.16047 -0.7463,0.70574 -2.7231,1.95639 -2.31027,3.2062 0.54299,1.6444 4.3115,2.62373 5.75429,3.27074 2.81734,1.26344 6.71545,3.17076 9.89314,2.59861 2.55497,-0.46006 -0.25145,-7.40305 -4.68968,-8.84012 -1.60873,-0.52092 -2.17984,-2.52633 -3.26245,-2.3959 z"
       sodipodi:nodetypes="csccccccsscsscssccccsccsccsccscccssccccssccccssccsccccscsssccscccssscscccsscssccsccssccsccsccccsccssccccsscsccsscsccscscsccccsssccscccscccccsccsccccccccccscscccccccccssccccsscccsccccccscsssccsscsscssscsscsssccsccccccsccccccssccccssscssccccccssssccscsccsssscssccccccsccccscscccsccccccsscscccccscccssccssccccsccccscccsscsscscccccccscsccccccsccccccscccccccssscssscccccccccccccccccccsscssscsscccccscccccccccsccccssscsccsccccsccccccccsccsccsscsssscscsscssccccccccssssccccsssccsssscccssssssscscsssc" />
  </g>
</svg>
