<svg width="800" height="600" viewBox="0 0 800 600" preseveAspectRatio="none" xmlns="http://www.w3.org/2000/svg">
  <defs>
    <filter id="marble-848657819" x="-50%" y="-50%" width="200%" height="200%" color-interpolation-filters="sRGB">
      <feTurbulence type="turbulence" baseFrequency="0.125" numOctaves="5" seed="848657819" result="turbulence"/>
      <feDisplacementMap in="SourceGraphic" in2="turbulence" scale="980" xChannelSelector="R" yChannelSelector="G" result="displacement"/>
      <feGaussianBlur in="displacement" stdDeviation="0.0" result="blur"/>
    </filter>
  </defs>
  <rect width="800" height="600" fill="#000000"/>
  <g filter="url(#marble-848657819)">
    <circle cx="793.1" cy="229.2" r="13.7" fill="#848484" opacity="0.69"/><circle cx="296.6" cy="-50.3" r="5.4" fill="#ffffff" opacity="0.60"/><circle cx="373.2" cy="153.3" r="16.2" fill="#838383" opacity="0.66"/><circle cx="803.4" cy="616.9" r="9.8" fill="#ffffff" opacity="0.63"/><circle cx="82.1" cy="180.3" r="14.5" fill="#ffffff" opacity="0.39"/><circle cx="253.4" cy="581.2" r="11.0" fill="#ffffff" opacity="0.66"/><circle cx="105.3" cy="431.8" r="14.0" fill="#ffffff" opacity="0.58"/><circle cx="185.2" cy="51.4" r="9.5" fill="#999999" opacity="0.82"/><circle cx="734.4" cy="435.6" r="15.9" fill="#ffffff" opacity="0.46"/><circle cx="509.1" cy="448.7" r="9.1" fill="#ffffff" opacity="0.75"/><circle cx="419.3" cy="502.4" r="10.5" fill="#ffffff" opacity="0.40"/><circle cx="455.8" cy="30.5" r="6.4" fill="#090909" opacity="0.59"/><circle cx="801.9" cy="22.4" r="2.4" fill="#ffffff" opacity="0.71"/><circle cx="230.1" cy="-43.5" r="10.0" fill="#ffffff" opacity="0.49"/><circle cx="643.6" cy="549.6" r="7.1" fill="#d4d4d4" opacity="0.53"/><circle cx="461.8" cy="108.8" r="13.6" fill="#ffffff" opacity="0.53"/><circle cx="874.4" cy="377.9" r="9.3" fill="#eeeeee" opacity="0.76"/><circle cx="7.3" cy="539.1" r="12.7" fill="#fcfcfc" opacity="0.74"/><circle cx="825.0" cy="575.2" r="9.3" fill="#ffffff" opacity="0.33"/><circle cx="670.8" cy="145.8" r="9.4" fill="#ffffff" opacity="0.89"/>
  </g>
</svg>