<svg width="256" height="1024" viewBox="0 0 256 1024" xmlns="http://www.w3.org/2000/svg">
  <defs>
    <filter id="marble-848657819" x="-50%" y="-50%" width="200%" height="200%" color-interpolation-filters="sRGB">
      <feTurbulence type="turbulence" baseFrequency="0.15" numOctaves="5" seed="848657819" result="turbulence"/>
      <feDisplacementMap in="SourceGraphic" in2="turbulence" scale="1600" xChannelSelector="R" yChannelSelector="G" result="displacement"/>
      <feGaussianBlur in="displacement" stdDeviation="0.0" result="blur"/>
    </filter>
  </defs>
  <rect width="256" height="1024" fill="#6151a0"/>
  <g filter="url(#marble-848657819)">
    <circle cx="253.8" cy="391.2" r="16.0" fill="#b33972" opacity="0.69"/><circle cx="94.9" cy="-85.8" r="16.0" fill="#ff2247" opacity="0.60"/><circle cx="119.4" cy="261.7" r="16.0" fill="#b23972" opacity="0.66"/><circle cx="257.1" cy="1052.8" r="16.0" fill="#ff2247" opacity="0.63"/><circle cx="26.3" cy="307.7" r="16.0" fill="#ff2247" opacity="0.39"/><circle cx="81.1" cy="991.9" r="16.0" fill="#ff2247" opacity="0.66"/><circle cx="33.7" cy="736.9" r="16.0" fill="#ff2247" opacity="0.58"/><circle cx="59.3" cy="87.8" r="16.0" fill="#c0356b" opacity="0.82"/><circle cx="235.0" cy="743.4" r="16.0" fill="#ff2247" opacity="0.46"/><circle cx="162.9" cy="765.8" r="16.0" fill="#ff2247" opacity="0.75"/><circle cx="134.2" cy="857.5" r="16.0" fill="#ff2247" opacity="0.40"/><circle cx="145.9" cy="52.1" r="16.0" fill="#674f9d" opacity="0.59"/><circle cx="256.6" cy="38.2" r="16.0" fill="#ff2247" opacity="0.71"/><circle cx="73.6" cy="-74.2" r="16.0" fill="#ff2247" opacity="0.49"/><circle cx="206.0" cy="938.0" r="16.0" fill="#e52a56" opacity="0.53"/><circle cx="147.8" cy="185.6" r="16.0" fill="#ff2247" opacity="0.53"/><circle cx="279.8" cy="644.9" r="16.0" fill="#f4254d" opacity="0.76"/><circle cx="2.3" cy="920.0" r="16.0" fill="#fd2348" opacity="0.74"/><circle cx="264.0" cy="981.6" r="16.0" fill="#ff2247" opacity="0.33"/><circle cx="214.7" cy="248.8" r="16.0" fill="#ff2247" opacity="0.89"/><circle cx="5.3" cy="574.4" r="16.0" fill="#ff2247" opacity="0.84"/><circle cx="6.8" cy="187.9" r="16.0" fill="#ff2247" opacity="0.34"/><circle cx="151.2" cy="404.2" r="16.0" fill="#ff2247" opacity="0.69"/><circle cx="221.7" cy="215.8" r="16.0" fill="#ff2247" opacity="0.64"/><circle cx="78.1" cy="444.6" r="16.0" fill="#ff2247" opacity="0.79"/><circle cx="212.5" cy="825.9" r="16.0" fill="#ff2247" opacity="0.88"/><circle cx="226.1" cy="1086.5" r="16.0" fill="#674f9d" opacity="0.88"/><circle cx="164.2" cy="24.2" r="16.0" fill="#ff2247" opacity="0.86"/><circle cx="59.8" cy="1103.2" r="16.0" fill="#774a94" opacity="0.31"/><circle cx="270.6" cy="956.7" r="16.0" fill="#ff2247" opacity="0.85"/><circle cx="30.1" cy="-30.2" r="16.0" fill="#b7376f" opacity="0.40"/><circle cx="4.3" cy="343.8" r="16.0" fill="#fe2248" opacity="0.50"/><circle cx="-11.3" cy="833.7" r="16.0" fill="#ff2247" opacity="0.41"/><circle cx="48.6" cy="924.3" r="16.0" fill="#ff2247" opacity="0.73"/><circle cx="26.4" cy="1040.6" r="16.0" fill="#ff2247" opacity="0.84"/><circle cx="121.2" cy="865.4" r="16.0" fill="#b33972" opacity="0.79"/><circle cx="153.1" cy="1124.1" r="16.0" fill="#ff2247" opacity="0.90"/><circle cx="8.1" cy="700.8" r="16.0" fill="#ff2247" opacity="0.33"/><circle cx="246.0" cy="814.2" r="16.0" fill="#ff2247" opacity="0.86"/><circle cx="217.1" cy="852.0" r="16.0" fill="#ff2247" opacity="0.75"/><circle cx="256.7" cy="918.7" r="16.0" fill="#ff2247" opacity="0.30"/><circle cx="168.6" cy="-43.9" r="16.0" fill="#ff2247" opacity="0.61"/><circle cx="7.6" cy="-87.4" r="16.0" fill="#ff2247" opacity="0.43"/><circle cx="89.0" cy="406.3" r="16.0" fill="#ff2247" opacity="0.55"/><circle cx="229.2" cy="178.8" r="16.0" fill="#b33972" opacity="0.40"/><circle cx="192.4" cy="913.1" r="16.0" fill="#a23e7b" opacity="0.88"/><circle cx="-19.8" cy="-46.3" r="16.0" fill="#66509d" opacity="0.68"/><circle cx="114.2" cy="110.5" r="16.0" fill="#d52e5f" opacity="0.50"/><circle cx="173.9" cy="971.3" r="16.0" fill="#ff2247" opacity="0.30"/><circle cx="7.9" cy="174.4" r="16.0" fill="#ff2247" opacity="0.68"/><circle cx="135.1" cy="142.1" r="16.0" fill="#ff2247" opacity="0.34"/><circle cx="142.4" cy="835.8" r="16.0" fill="#ee2750" opacity="0.51"/><circle cx="40.2" cy="505.1" r="16.0" fill="#ff2247" opacity="0.58"/><circle cx="131.4" cy="825.5" r="16.0" fill="#ff2247" opacity="0.76"/><circle cx="43.2" cy="156.3" r="16.0" fill="#83478d" opacity="0.67"/><circle cx="160.3" cy="737.1" r="16.0" fill="#81488e" opacity="0.78"/><circle cx="248.3" cy="244.6" r="16.0" fill="#ff2247" opacity="0.78"/><circle cx="171.3" cy="1033.0" r="16.0" fill="#964182" opacity="0.69"/><circle cx="188.3" cy="538.7" r="16.0" fill="#ff2247" opacity="0.77"/><circle cx="-8.5" cy="531.4" r="16.0" fill="#ff2247" opacity="0.90"/><circle cx="14.4" cy="787.6" r="16.0" fill="#8e4487" opacity="0.53"/><circle cx="39.0" cy="383.5" r="16.0" fill="#ff2247" opacity="0.67"/><circle cx="210.5" cy="404.8" r="16.0" fill="#ff2247" opacity="0.45"/><circle cx="52.4" cy="720.1" r="16.0" fill="#d92d5c" opacity="0.64"/><circle cx="212.9" cy="878.3" r="16.0" fill="#ff2247" opacity="0.49"/><circle cx="-14.2" cy="800.5" r="16.0" fill="#ff2247" opacity="0.58"/><circle cx="-16.1" cy="109.4" r="16.0" fill="#ff2247" opacity="0.38"/><circle cx="145.1" cy="412.3" r="16.0" fill="#ff2247" opacity="0.67"/><circle cx="211.7" cy="-58.7" r="16.0" fill="#ff2247" opacity="0.53"/><circle cx="23.8" cy="-1.6" r="16.0" fill="#794a92" opacity="0.65"/><circle cx="229.2" cy="335.0" r="16.0" fill="#ff2247" opacity="0.73"/><circle cx="197.1" cy="-47.4" r="16.0" fill="#ff2247" opacity="0.34"/><circle cx="34.1" cy="207.3" r="16.0" fill="#ff2247" opacity="0.65"/><circle cx="266.6" cy="310.3" r="16.0" fill="#ff2247" opacity="0.59"/><circle cx="273.7" cy="65.0" r="16.0" fill="#934284" opacity="0.84"/><circle cx="256.8" cy="750.5" r="16.0" fill="#f5254c" opacity="0.76"/><circle cx="51.2" cy="184.7" r="16.0" fill="#9d3f7e" opacity="0.68"/><circle cx="-8.5" cy="1097.2" r="16.0" fill="#a33d7b" opacity="0.42"/><circle cx="250.7" cy="117.6" r="16.0" fill="#d13061" opacity="0.55"/><circle cx="191.1" cy="98.2" r="16.0" fill="#ff2247" opacity="0.72"/><circle cx="99.0" cy="660.0" r="16.0" fill="#ff2247" opacity="0.51"/><circle cx="251.7" cy="1102.6" r="16.0" fill="#ff2247" opacity="0.35"/><circle cx="-22.3" cy="352.2" r="16.0" fill="#ff2247" opacity="0.88"/><circle cx="170.5" cy="550.3" r="16.0" fill="#ff2247" opacity="0.47"/><circle cx="223.2" cy="186.7" r="16.0" fill="#ff2247" opacity="0.40"/><circle cx="69.9" cy="136.0" r="16.0" fill="#ff2247" opacity="0.77"/><circle cx="143.2" cy="-48.7" r="16.0" fill="#c43468" opacity="0.46"/><circle cx="260.1" cy="198.6" r="16.0" fill="#ff2247" opacity="0.78"/><circle cx="125.0" cy="668.7" r="16.0" fill="#ff2247" opacity="0.31"/><circle cx="-4.0" cy="99.0" r="16.0" fill="#ff2247" opacity="0.69"/><circle cx="161.1" cy="187.2" r="16.0" fill="#ff2247" opacity="0.48"/><circle cx="210.2" cy="-101.2" r="16.0" fill="#774a93" opacity="0.67"/><circle cx="275.6" cy="1103.7" r="16.0" fill="#ff2247" opacity="0.56"/><circle cx="32.8" cy="943.3" r="16.0" fill="#ff2247" opacity="0.35"/><circle cx="10.6" cy="200.2" r="16.0" fill="#ff2247" opacity="0.45"/><circle cx="20.8" cy="53.8" r="16.0" fill="#ff2247" opacity="0.64"/><circle cx="153.1" cy="890.9" r="16.0" fill="#ff2247" opacity="0.90"/><circle cx="7.0" cy="481.9" r="16.0" fill="#ad3a75" opacity="0.36"/><circle cx="-22.7" cy="24.3" r="16.0" fill="#ff2247" opacity="0.89"/><circle cx="88.7" cy="-51.7" r="16.0" fill="#ff2247" opacity="0.62"/>
  </g>
</svg>